<?xml version="1.0" encoding="utf-8"?>
<!-- Generator: Adobe Illustrator 21.0.0, SVG Export Plug-In . SVG Version: 6.00 Build 0)  -->
<svg version="1.1" id="图层_1" xmlns="http://www.w3.org/2000/svg" xmlns:xlink="http://www.w3.org/1999/xlink" x="0px" y="0px"
	 viewBox="0 0 223.8 255.1" style="enable-background:new 0 0 223.8 255.1;" xml:space="preserve">
<style type="text/css">
	.st0{fill:#2B3B49;}
</style>
<g>
	<path class="st0" d="M48.7,154.5c-0.3-1.4-0.9-4-1.9-6.9l-9.5-31.1c-0.9-3.1-1.6-5.5-2.1-8.3c-0.1,0.5-0.3,0.9-0.3,1.2
		c-0.5,1.9-1.4,5.6-1.9,7.1l-9.4,31.1c-1.2,3.9-1.5,5.1-1.9,6.9h-5.5c-0.2-1.3-0.2-1.3-1.9-7.1L3,108c-1.2-4-1.8-5.8-3-8.2h7.3
		c0.1,2.2,0.6,4.5,1.4,7.5l8.5,31.3c0.5,1.7,0.9,3.7,1.9,8.1c0.7-2.9,1.6-6.3,2.2-8.2l9.6-31.6c0.8-2.6,1.4-5.4,1.7-7.1h5.4
		c0.4,2.2,0.9,4.3,1.7,7.1l9.6,31.5c0.4,1.6,0.7,2.7,2.2,8.3l1.9-8.3l8.5-31.1c0.7-2.8,1.2-5.4,1.4-7.5h7.2
		c-1.1,2.4-1.7,4.2-2.8,8.2l-11.4,39.4c-1.6,5.5-1.6,5.5-1.9,7.1H48.7z"/>
	<path class="st0" d="M80.2,135.9c0.2,4.8,0.9,7.5,2.9,10.1c2.3,3.2,5.8,4.9,10.2,4.9c5.8,0,9.9-2.9,11.9-8.4l5,2
		c-1.4,3-2.3,4.3-4,6c-3.4,3.3-7.8,5-13,5c-11.3,0-18.4-7.9-18.4-20.4c0-12.3,7.1-20.4,17.9-20.4c9.3,0,16,6,17.4,15.6
		c0.1,0.8,0.4,3.6,0.5,5.5H80.2z M104.8,131.4c-0.4-4-1.5-6.6-3.8-8.9c-2.2-2.2-5-3.2-8.5-3.2c-4.4,0-8.1,2.2-10.2,6.3
		c-1,1.8-1.4,3.1-1.8,5.8H104.8z"/>
	<path class="st0" d="M125.8,99.8v6.4h-7v-6.4H125.8z M125.5,115.7c-0.4,2.5-0.5,4.5-0.5,8.1v22.5c0,3.3,0.1,5.3,0.5,8.1H119
		c0.4-3.1,0.5-5.1,0.5-8.1v-22.5c0-3.5-0.1-5.6-0.5-8.1H125.5z"/>
	<path class="st0" d="M144.4,154.5c-3.2,0-5.4,0.1-7.9,0.2c0.5-2.9,0.6-4.8,0.6-8.9v-38.5c0-3.1-0.1-5-0.6-7.6
		c2.2,0.1,3.7,0.1,7.8,0.1h15.3c10.4,0,16.3,4.8,16.3,13.2c0,4.2-1.3,7.3-3.9,9.6c-1.5,1.3-2.8,1.9-5.7,2.9c3.3,0.6,5,1.4,7,3
		c3,2.5,4.5,6.2,4.5,10.8c0,9.6-6.3,15.1-17.4,15.1H144.4z M159.6,123.2c6.7,0,10.7-3.5,10.7-9.6c0-6-3.6-9-10.7-9h-16.9v18.6H159.6
		z M142.6,149.6H160c7.8,0,12-3.7,12-10.7c0-7.1-4.2-10.8-12.2-10.8h-17.2V149.6z"/>
	<path class="st0" d="M185.5,135.1c0-12.5,7.5-20.4,19.2-20.4s19.2,7.9,19.2,20.3c0,12.3-7.5,20.4-19.1,20.4
		C193,155.4,185.5,147.6,185.5,135.1z M191,135c0,9.8,5.3,15.8,13.7,15.8s13.6-6,13.6-15.7c0-9.7-5.2-15.8-13.5-15.8
		C196.3,119.3,191,125.2,191,135z"/>
</g>
</svg>
