<?xml version="1.0" encoding="utf-8"?>
<!-- Generator: Adobe Illustrator 21.0.0, SVG Export Plug-In . SVG Version: 6.00 Build 0)  -->
<svg version="1.1" id="图层_1" xmlns="http://www.w3.org/2000/svg" xmlns:xlink="http://www.w3.org/1999/xlink" x="0px" y="0px"
	 viewBox="0 0 239.6 255.1" style="enable-background:new 0 0 239.6 255.1;" xml:space="preserve">
<style type="text/css">
	.st0{fill:#2B3B49;}
</style>
<g>
	<path class="st0" d="M35.6,130c-3.7,0-5.4,0.1-7.4,0.4v-5.8c2.2,0.4,4,0.4,7.8,0.4h2.1c3.4,0,5.4-0.1,7.6-0.3
		c-0.4,3-0.5,4.8-0.5,8.1v6.6c0,3.4,0.1,5.1,0.5,8c-4.3,2.5-6.5,3.5-9.8,4.5c-3,0.9-7.1,1.4-10.7,1.4c-6.8,0-12.2-1.7-16.4-5.3
		c-5.6-5-8.9-13.2-8.9-23c0-17.4,9.8-28.4,25.1-28.4c6.4,0,11.6,1.8,15.4,5.3c2.4,2.2,3.7,4.3,5.3,8.2l-5.6,1.9
		c-2.6-7.1-7.4-10.4-15.1-10.4c-11.9,0-19.2,8.9-19.2,23.3c0,7.7,2.1,14,6,18.3c3.2,3.5,7.7,5.2,13.4,5.2s10.3-1.3,14.5-4V130H35.6z
		"/>
	<path class="st0" d="M62.6,97.8v6.4h-7v-6.4H62.6z M62.3,113.8c-0.4,2.5-0.5,4.5-0.5,8.1v22.5c0,3.3,0.1,5.3,0.5,8.1h-6.5
		c0.4-3.1,0.5-5.1,0.5-8.1v-22.5c0-3.5-0.1-5.6-0.5-8.1H62.3z"/>
	<path class="st0" d="M83.8,103c-0.4,2.3-0.5,4.9-0.5,8v2.7h3.5c3.3,0,4.8-0.1,7.3-0.4v5.5c-2.3-0.4-4.1-0.4-7.3-0.4h-3.5v25.1
		c0,2.1,0.3,3.2,0.9,3.8c0.8,0.8,2,1.2,3.5,1.2c1.9,0,3.3-0.4,5.7-1.9l1.6,5c-3,1.2-5.2,1.7-8.1,1.7c-3.2,0-5.6-0.8-7.1-2.2
		c-1.4-1.4-2-3.5-2-6.9v-25.8H75c-2.4,0-4.1,0.1-6.5,0.4v-5.5c2,0.4,3.5,0.4,6.5,0.4h2.9V111c0-2.9-0.1-5.6-0.5-8H83.8z"/>
	<path class="st0" d="M146.4,97.8c-0.4,2.7-0.6,4.5-0.6,7.9v38.7c0,3.5,0.1,5.3,0.6,8.1h-6.8c0.4-2.7,0.6-4.6,0.6-8.1v-18.2h-32.5
		v18.2c0,3.6,0.1,5.5,0.6,8.1h-6.8c0.4-2.4,0.6-4.5,0.6-8.1v-38.6c0-3.5-0.1-5.5-0.6-8.1h6.8c-0.4,2.7-0.6,4.5-0.6,7.9v15.4h32.5
		v-15.3c0-3.4-0.1-5.6-0.6-8.1H146.4z"/>
	<path class="st0" d="M185.3,147.9c0-0.8,0-1.3,0.2-3.2c-3.6,5.9-8.1,8.6-14.5,8.6c-5.2,0-9.2-1.9-11.5-5.3c-1.3-2.1-2-4.9-2-8.4
		v-17.8c0-3.2-0.1-5.8-0.5-8.1h6.5c-0.4,2.5-0.5,5-0.5,8.1v16.8c0,6.4,3.1,10,8.7,10c4.1,0,7.5-1.8,10.4-5.7
		c1.9-2.5,2.7-4.3,3.3-7.2v-13.9c0-3.1-0.1-5.6-0.5-8.1h6.4c-0.4,2.5-0.5,4.8-0.5,8.1v22.5c0,3.2,0.1,5.3,0.6,8.1h-6V147.9z"/>
	<path class="st0" d="M201.5,152.6c0.4-2.7,0.5-4.8,0.5-8.3V106c0-3-0.1-5.3-0.5-8.1h6.3c-0.4,2.7-0.5,4.8-0.5,8.2v9.7
		c0,1.9-0.1,3.2-0.3,5.1c3.4-5.3,8.3-7.9,14.8-7.9c11.1,0,17.7,7.5,17.7,20c0,12.7-6.8,20.3-18,20.3c-4.5,0-7.8-1.2-11.2-3.9
		c-1.6-1.2-2.2-2-3.4-3.7c0.1,1.4,0.2,1.9,0.2,2.9v4H201.5z M221.5,117.6c-8.5,0-14.1,6.2-14.1,15.4c0,9.3,5.6,15.6,13.9,15.6
		c8.1,0,12.8-5.8,12.8-15.7C234.1,123.2,229.5,117.6,221.5,117.6z"/>
</g>
</svg>
