<?xml version="1.0" encoding="utf-8"?>
<!-- Generator: Adobe Illustrator 21.0.0, SVG Export Plug-In . SVG Version: 6.00 Build 0)  -->
<svg version="1.1" id="图层_1" xmlns="http://www.w3.org/2000/svg" xmlns:xlink="http://www.w3.org/1999/xlink" x="0px" y="0px"
	 viewBox="0 0 270.6 255.1" style="enable-background:new 0 0 270.6 255.1;" xml:space="preserve">
<style type="text/css">
	.st0{fill:#2B3B49;}
</style>
<g>
	<path class="st0" d="M0.6,102.9c0-3.1-0.1-5.2-0.6-8.2c2.5,0.1,4.5,0.2,7.9,0.2h12.2c16.1,0,25.2,9.8,25.2,27
		c0,9-2.7,16.5-7.7,21.3c-4.3,4.2-10.3,6.4-17.5,6.4H7.9c-3.5,0-5.4,0.1-7.9,0.2c0.4-2.8,0.6-5,0.6-8.6V102.9z M19.9,144.6
		c5.7,0,10.2-1.7,13.5-5.1c4-4,6-10.2,6-17.6c0-7.5-1.9-13.2-5.7-17.1c-3.2-3.3-7.6-4.9-13.5-4.9h-14v44.6H19.9z"/>
	<path class="st0" d="M52.3,130.3c0-12.5,7.5-20.4,19.2-20.4s19.2,7.9,19.2,20.3c0,12.3-7.5,20.4-19.1,20.4
		C59.8,150.6,52.3,142.7,52.3,130.3z M57.9,130.1c0,9.8,5.3,15.8,13.7,15.8s13.6-6,13.6-15.7c0-9.7-5.2-15.8-13.5-15.8
		C63.1,114.4,57.9,120.4,57.9,130.1z"/>
	<path class="st0" d="M127.4,145c0-0.8,0-1.3,0.2-3.2c-3.6,5.9-8.1,8.6-14.5,8.6c-5.2,0-9.2-1.9-11.5-5.3c-1.3-2.1-2-4.9-2-8.4
		v-17.8c0-3.2-0.1-5.8-0.5-8.1h6.5c-0.4,2.5-0.5,5-0.5,8.1v16.8c0,6.4,3.1,10,8.7,10c4.1,0,7.5-1.8,10.4-5.7
		c1.9-2.5,2.7-4.3,3.3-7.2V119c0-3.1-0.1-5.6-0.5-8.1h6.4c-0.4,2.5-0.5,4.8-0.5,8.1v22.5c0,3.2,0.1,5.3,0.6,8.1h-6V145z"/>
	<path class="st0" d="M152,149.7c-3.2,0-5.4,0.1-7.9,0.2c0.5-2.9,0.6-4.8,0.6-8.9v-38.5c0-3.1-0.1-5-0.6-7.6
		c2.2,0.1,3.7,0.1,7.8,0.1h15.3c10.4,0,16.3,4.8,16.3,13.2c0,4.2-1.3,7.3-3.9,9.6c-1.5,1.3-2.8,1.9-5.7,2.9c3.3,0.6,5,1.4,7,3
		c3,2.5,4.5,6.2,4.5,10.8c0,9.6-6.3,15.1-17.4,15.1H152z M167.3,118.4c6.7,0,10.7-3.5,10.7-9.6c0-6-3.6-9-10.7-9h-16.9v18.6H167.3z
		 M150.3,144.8h17.4c7.8,0,12-3.7,12-10.7c0-7.1-4.2-10.8-12.2-10.8h-17.2V144.8z"/>
	<path class="st0" d="M220.5,144.5c-2.8,2.5-4.2,3.5-6.6,4.4c-2.4,0.9-5,1.4-7.5,1.4c-7.9,0-12.7-4.1-12.7-10.9
		c0-5.8,3.6-9.9,10.3-11.8c4.2-1.2,7.7-1.7,16.6-1.9v-4.2c0-4.9-3.1-7.4-9.1-7.4c-4,0-6.9,1-8.9,3.1c-0.9,1-1.5,2-2.2,4.2l-5.6-1.2
		c1.3-3.3,2.2-4.8,4-6.4c3-2.7,7.3-4.1,12.7-4.1c9.5,0,14.4,4,14.4,11.8v20.2c0,3.2,0.1,5,0.6,7.9h-5.8V144.5z M220.5,130
		c-8.6,0.2-12.7,0.7-15.9,2.1c-3.7,1.5-5.5,4-5.5,7.4c0,4,3,6.5,7.6,6.5c4.2,0,8.7-2,11.5-5.1c1.7-1.8,2.2-3.3,2.2-6.2V130z"/>
	<path class="st0" d="M236.3,149.7c0.4-2.7,0.6-4.7,0.6-8.1V119c0-3.2-0.1-5.3-0.6-8.1h6v4.9c0,0.9,0,1.4-0.2,3.1
		c3.4-5.9,8.1-8.7,14.5-8.7c5.2,0,9.2,1.9,11.5,5.4c1.4,2.1,2,4.8,2,8.3v17.8c0,3.7,0.1,5.7,0.5,8.1h-6.5c0.4-2.8,0.5-5,0.5-8.1
		v-16.8c0-6.5-3.1-9.9-8.8-9.9c-4,0-7.3,1.8-10.3,5.7c-1.9,2.4-2.7,4.2-3.3,7.1v13.9c0,3.2,0.1,5.3,0.5,8.1H236.3z"/>
</g>
</svg>
