<?xml version="1.0" encoding="utf-8"?>
<!-- Generator: Adobe Illustrator 21.0.0, SVG Export Plug-In . SVG Version: 6.00 Build 0)  -->
<svg version="1.1" id="图层_1" xmlns="http://www.w3.org/2000/svg" xmlns:xlink="http://www.w3.org/1999/xlink" x="0px" y="0px"
	 viewBox="0 0 202.3 255.1" style="enable-background:new 0 0 202.3 255.1;" xml:space="preserve">
<style type="text/css">
	.st0{fill:#2B3B49;}
</style>
<g>
	<path class="st0" d="M45.3,96.7c-0.4,2.7-0.6,4.5-0.6,7.9v38.7c0,3.5,0.1,5.3,0.6,8.1h-6.8c0.4-2.7,0.6-4.6,0.6-8.1v-18.2H6.6v18.2
		c0,3.6,0.1,5.5,0.6,8.1H0.4c0.4-2.4,0.6-4.5,0.6-8.1v-38.6c0-3.5-0.1-5.5-0.6-8.1h6.8c-0.4,2.7-0.6,4.5-0.6,7.9V120h32.5v-15.3
		c0-3.4-0.1-5.6-0.6-8.1H45.3z"/>
	<path class="st0" d="M54.2,132c0-12.5,7.5-20.4,19.2-20.4c11.7,0,19.2,7.9,19.2,20.3c0,12.3-7.5,20.4-19.1,20.4
		C61.6,152.3,54.2,144.5,54.2,132z M59.7,131.9c0,9.8,5.3,15.8,13.7,15.8S87,141.7,87,132c0-9.7-5.2-15.8-13.5-15.8
		C65,116.2,59.7,122.2,59.7,131.9z"/>
	<path class="st0" d="M101,151.4c0.4-2.6,0.5-4.8,0.5-8.1v-22.5c0-3.6-0.1-5.5-0.5-8.1h5.8v4c0,0.4-0.1,1.2-0.1,2.6
		c0.6-1.2,1.3-2.1,2.7-3.6c2.4-2.4,6-3.7,10.2-3.7c4.1,0,7.1,1.2,9.3,3.7c1.1,1.2,1.5,2,2.2,4.2c3.4-5.5,7.3-7.8,13.3-7.8
		c4.8,0,8.4,1.5,10.5,4.4c1.7,2.3,2.4,5.1,2.4,9.4v17.8c0,3.6,0.1,5.5,0.5,8.1h-6.5c0.4-2.7,0.5-4.3,0.5-8.1v-17
		c0-6.8-2.5-9.8-8.3-9.8c-3.6,0-7,1.9-9.1,5.3c-1.4,2.1-2.4,5.3-2.4,7.4v14.2c0,3.6,0.1,5.6,0.5,8.1h-6.5c0.4-2.6,0.5-4.5,0.5-8.1
		v-17c0-6.3-2.9-9.8-8.1-9.8c-3.7,0-7.2,2-9.4,5.5c-1.3,1.9-2.4,5.3-2.4,7.2v14.1c0,3.3,0.1,5.3,0.5,8.1H101z"/>
	<path class="st0" d="M171.7,132.8c0.2,4.8,0.9,7.5,2.9,10.1c2.3,3.2,5.8,4.9,10.2,4.9c5.8,0,9.9-2.9,11.9-8.4l5,2
		c-1.4,3-2.3,4.3-4,6c-3.4,3.3-7.8,5-13,5c-11.3,0-18.4-7.9-18.4-20.4c0-12.3,7.1-20.4,17.9-20.4c9.3,0,16,6,17.4,15.6
		c0.1,0.8,0.4,3.6,0.5,5.5H171.7z M196.2,128.3c-0.4-4-1.5-6.6-3.8-8.9c-2.2-2.2-5-3.2-8.5-3.2c-4.4,0-8.1,2.2-10.2,6.3
		c-1,1.8-1.4,3.1-1.8,5.8H196.2z"/>
</g>
</svg>
