<?xml version="1.0" encoding="utf-8"?>
<!-- Generator: Adobe Illustrator 21.0.0, SVG Export Plug-In . SVG Version: 6.00 Build 0)  -->
<svg version="1.1" id="图层_1" xmlns="http://www.w3.org/2000/svg" xmlns:xlink="http://www.w3.org/1999/xlink" x="0px" y="0px"
	 viewBox="0 0 202.9 255.1" style="enable-background:new 0 0 202.9 255.1;" xml:space="preserve">
<style type="text/css">
	.st0{fill:#2B3B49;}
</style>
<g>
	<path class="st0" d="M44.6,155.3c-2.8-0.4-4.7-0.5-8.4-0.5h-27c-4.3,0-5.9,0.1-8.2,0.2v-5.1c1.4-1.4,2.8-3,5.3-6.1L33.5,108
		c0.7-0.9,1.6-1.9,2.7-3.1c-1.4,0.1-3.4,0.2-4.4,0.2H12c-3.7,0-5.8,0.1-8.4,0.5v-6c2.4,0.4,4.6,0.5,8.4,0.5h23.3
		c3,0,5.3-0.1,8.1-0.2v5c-1.5,1.4-2.9,3.1-5.2,6.1l-26.6,34.9c-1,1.3-1.9,2.4-3.5,4.1c2.4-0.1,3.8-0.1,5.5-0.1h22.5
		c3.4,0,5.8-0.1,8.4-0.5V155.3z"/>
	<path class="st0" d="M52,154.8c0.4-2.6,0.5-4.5,0.5-8.1v-38.5c0-3.6-0.1-5.5-0.5-8.1h6.4c-0.4,2.7-0.6,4.5-0.6,8.2v12.2
		c0,1.2,0,1.7-0.2,3.6c1.4-2.4,2.2-3.5,4-4.9c3.1-2.7,6.4-3.9,10.8-3.9c8.4,0,13.5,5,13.5,13.4v18.1c0,3.3,0.1,5.4,0.5,8.1h-6.5
		c0.4-2.4,0.5-4.5,0.5-8.1v-17c0-6.3-3.1-9.6-8.7-9.6c-4,0-7.3,1.7-10.2,5.3c-2,2.6-3,4.5-3.6,7.6v13.8c0,3.2,0.1,5.3,0.5,8.1H52z"
		/>
	<path class="st0" d="M103.3,100.1v6.4h-7v-6.4H103.3z M103,116c-0.4,2.5-0.5,4.5-0.5,8.1v22.5c0,3.3,0.1,5.3,0.5,8.1h-6.5
		c0.4-3.1,0.5-5.1,0.5-8.1v-22.5c0-3.5-0.1-5.6-0.5-8.1H103z"/>
	<path class="st0" d="M158.9,100.1c-0.4,2.7-0.6,4.5-0.6,7.9v38.7c0,3.5,0.1,5.3,0.6,8.1h-6.8c0.4-2.7,0.6-4.6,0.6-8.1v-18.2h-32.5
		v18.2c0,3.6,0.1,5.5,0.6,8.1H114c0.4-2.4,0.6-4.5,0.6-8.1v-38.6c0-3.5-0.1-5.5-0.6-8.1h6.8c-0.4,2.7-0.6,4.5-0.6,7.9v15.4h32.5
		v-15.3c0-3.4-0.1-5.6-0.6-8.1H158.9z"/>
	<path class="st0" d="M197.9,150.1c0-0.8,0-1.3,0.2-3.2c-3.6,5.9-8.1,8.6-14.5,8.6c-5.2,0-9.2-1.9-11.5-5.3c-1.3-2.1-2-4.9-2-8.4
		v-17.8c0-3.2-0.1-5.8-0.5-8.1h6.5c-0.4,2.5-0.5,5-0.5,8.1v16.8c0,6.4,3.1,10,8.7,10c4.1,0,7.5-1.8,10.4-5.7
		c1.9-2.5,2.7-4.3,3.3-7.2v-13.9c0-3.1-0.1-5.6-0.5-8.1h6.4c-0.4,2.5-0.5,4.8-0.5,8.1v22.5c0,3.2,0.1,5.3,0.6,8.1h-6V150.1z"/>
</g>
</svg>
